<?xml version="1.0" encoding="UTF-8" standalone="no"?>
<svg
   xmlns:dc="http://purl.org/dc/elements/1.1/"
   xmlns:cc="http://creativecommons.org/ns#"
   xmlns:rdf="http://www.w3.org/1999/02/22-rdf-syntax-ns#"
   xmlns:svg="http://www.w3.org/2000/svg"
   xmlns="http://www.w3.org/2000/svg"
   xmlns:sodipodi="http://sodipodi.sourceforge.net/DTD/sodipodi-0.dtd"
   xmlns:inkscape="http://www.inkscape.org/namespaces/inkscape"
   width="198.82475mm"
   height="200.30341mm"
   viewBox="0 0 198.82475 200.30341"
   version="1.1"
   id="svg439"
   sodipodi:docname="logo.svg"
   inkscape:version="1.0.1 (3bc2e813f5, 2020-09-07)">
  <defs
     id="defs433" />
  <sodipodi:namedview
     id="base"
     pagecolor="#ffffff"
     bordercolor="#666666"
     borderopacity="1.0"
     inkscape:pageopacity="0.0"
     inkscape:pageshadow="2"
     inkscape:zoom="0.7"
     inkscape:cx="208.57399"
     inkscape:cy="181.74761"
     inkscape:document-units="mm"
     inkscape:current-layer="layer1"
     inkscape:document-rotation="0"
     showgrid="false"
     inkscape:pagecheckerboard="true"
     inkscape:window-width="1267"
     inkscape:window-height="1198"
     inkscape:window-x="2048"
     inkscape:window-y="157"
     inkscape:window-maximized="0" />
  <metadata
     id="metadata436">
    <rdf:RDF>
      <cc:Work
         rdf:about="">
        <dc:format>image/svg+xml</dc:format>
        <dc:type
           rdf:resource="http://purl.org/dc/dcmitype/StillImage" />
        <dc:title></dc:title>
      </cc:Work>
    </rdf:RDF>
  </metadata>
  <g
     inkscape:label="Layer 1"
     inkscape:groupmode="layer"
     id="layer1"
     transform="translate(-6.0429823,-57.620276)">
    <g
       id="g40"
       transform="matrix(0.50423205,0,0,-0.50423205,178.64323,156.20218)">
      <path
         d="m 0,0 v 195.509 l -83.886,-87.023 -63.862,5.693 V -99.783 h 5.202 l -0.001,208.277 60.678,-5.41 76.668,79.534 V 0 Z"
         style="fill:#ffffff;fill-opacity:1;fill-rule:nonzero;stroke:none"
         id="path42" />
    </g>
    <g
       id="g44"
       transform="matrix(0.50423205,0,0,-0.50423205,176.11984,154.18901)">
      <path
         d="m 0,0 -30.01,-72.774 4.808,-1.983 30.01,72.774"
         style="fill:#ffffff;fill-opacity:1;fill-rule:nonzero;stroke:none"
         id="path46" />
    </g>
    <g
       id="g48"
       transform="matrix(0.50423205,0,0,-0.50423205,105.7933,207.78278)">
      <path
         d="m 0,0 112.537,30.01 -1.34,5.025 L -1.34,5.026"
         style="fill:#ffffff;fill-opacity:1;fill-rule:nonzero;stroke:none"
         id="path50" />
    </g>
    <g
       id="g52"
       transform="matrix(0.50423205,0,0,-0.50423205,137.37971,235.0731)">
      <path
         d="M 0,0 -61.521,58.52 -65.105,54.751 -3.584,-3.768"
         style="fill:#ffffff;fill-opacity:1;fill-rule:nonzero;stroke:none"
         id="path54" />
    </g>
    <g
       id="g56"
       transform="matrix(0.50423205,0,0,-0.50423205,144.36972,156.76294)">
      <path
         d="m 0,0 33.011,-69.773 4.701,2.224 -33.01,69.773"
         style="fill:#ffffff;fill-opacity:1;fill-rule:nonzero;stroke:none"
         id="path58" />
    </g>
    <g
       id="g60"
       transform="matrix(0.50423205,0,0,-0.50423205,135.80963,103.65451)">
      <path
         d="m 0,0 80.276,-105.785 4.143,3.144 L 4.143,3.144"
         style="fill:#ffffff;fill-opacity:1;fill-rule:nonzero;stroke:none"
         id="path62" />
    </g>
    <g
       id="g64"
       transform="matrix(0.50423205,0,0,-0.50423205,177.82359,154.98647)">
      <path
         d="m 0,0 -142.547,57.625 -1.95,-4.821 L -1.95,-4.822"
         style="fill:#ffffff;fill-opacity:1;fill-rule:nonzero;stroke:none"
         id="path66" />
    </g>
    <g
       id="g68"
       transform="matrix(0.50423205,0,0,-0.50423205,202.29413,197.82175)">
      <path
         d="m 0,0 0.413,2.568 -81.277,13.062 -51.618,-89.546 -59.57,-39.059 -59.571,39.06 -51.618,89.546 -75.76,-12.177 45.862,76.477 h 60.301 l 80.785,-101.339 80.785,101.339 h 60.303 L -2.23,-1.337 0,0 0.413,2.568 0,0 2.23,1.338 -48.021,85.132 h -65.751 l -78.28,-98.196 -78.281,98.196 h -65.752 l -53.123,-88.586 83.252,13.38 50.446,-87.511 63.457,-41.61 63.458,41.608 L -78.148,9.926 5.104,-3.455 2.23,1.338 Z"
         style="fill:#ffffff;fill-opacity:1;fill-rule:nonzero;stroke:none"
         id="path70" />
    </g>
    <g
       id="g72"
       transform="matrix(0.50423205,0,0,-0.50423205,34.889344,156.20218)">
      <path
         d="m 0,0 v 182.619 l 76.668,-79.535 60.679,5.41 V -99.783 h 5.201 V 114.179 L 78.685,108.486 -5.201,195.507 V 0 Z"
         style="fill:#ffffff;fill-opacity:1;fill-rule:nonzero;stroke:none"
         id="path74" />
    </g>
    <g
       id="g76"
       transform="matrix(0.50423205,0,0,-0.50423205,32.365967,155.18886)">
      <path
         d="m 0,0 30.01,-72.774 4.808,1.983 -30.01,72.774"
         style="fill:#ffffff;fill-opacity:1;fill-rule:nonzero;stroke:none"
         id="path78" />
    </g>
    <g
       id="g80"
       transform="matrix(0.50423205,0,0,-0.50423205,105.7933,205.24878)">
      <path
         d="m 0,0 -112.538,30.01 -1.34,-5.026 112.538,-30.01"
         style="fill:#ffffff;fill-opacity:1;fill-rule:nonzero;stroke:none"
         id="path82" />
    </g>
    <g
       id="g84"
       transform="matrix(0.50423205,0,0,-0.50423205,75.338435,236.97326)">
      <path
         d="M 0,0 61.521,58.52 57.936,62.288 -3.584,3.768"
         style="fill:#ffffff;fill-opacity:1;fill-rule:nonzero;stroke:none"
         id="path86" />
    </g>
    <g
       id="g88"
       transform="matrix(0.50423205,0,0,-0.50423205,49.895438,191.94468)">
      <path
         d="M 0,0 33.012,69.773 28.31,71.997 -4.702,2.224"
         style="fill:#ffffff;fill-opacity:1;fill-rule:nonzero;stroke:none"
         id="path90" />
    </g>
    <g
       id="g92"
       transform="matrix(0.50423205,0,0,-0.50423205,73.01206,102.06921)">
      <path
         d="m 0,0 -80.277,-105.785 4.143,-3.144 80.277,105.785"
         style="fill:#ffffff;fill-opacity:1;fill-rule:nonzero;stroke:none"
         id="path94" />
    </g>
    <g
       id="g96"
       transform="matrix(0.50423205,0,0,-0.50423205,34.069716,157.41785)">
      <path
         d="m 0,0 142.548,57.625 -1.95,4.823 L -1.95,4.822"
         style="fill:#ffffff;fill-opacity:1;fill-rule:nonzero;stroke:none"
         id="path98" />
    </g>
    <g
       id="g100"
       transform="matrix(0.50423205,0,0,-0.50423205,84.406751,180.10614)">
      <path
         d="M 0,0 C -0.291,0.366 2.729,34.688 2.729,34.688 L -37.782,47.407 Z"
         style="fill:#ffffff;fill-opacity:1;fill-rule:nonzero;stroke:none"
         id="path102" />
    </g>
    <g
       id="g104"
       transform="matrix(0.50423205,0,0,-0.50423205,125.93792,180.10614)">
      <path
         d="M 0,0 C 0.291,0.366 -2.729,34.688 -2.729,34.688 L 37.782,47.407 Z"
         style="fill:#ffffff;fill-opacity:1;fill-rule:nonzero;stroke:none"
         id="path106" />
    </g>
  </g>
</svg>
